<?xml version="1.0" encoding="UTF-8"?>
<svg version="1.1" xmlns="http://www.w3.org/2000/svg" width="1200" height="1200">
<path d="M0 0 C396 0 792 0 1200 0 C1200 396 1200 792 1200 1200 C804 1200 408 1200 0 1200 C0 804 0 408 0 0 Z " fill="#096209" transform="translate(0,0)"/>
<path d="M0 0 C1.48333832 0.0258165 1.48333832 0.0258165 2.99664307 0.05215454 C4.08038208 0.07058411 5.16412109 0.08901367 6.28070068 0.10800171 C11.14287257 0.27128696 15.98860463 0.5419433 20.84136963 0.88272095 C21.91499252 0.95505447 22.98861542 1.027388 24.09477234 1.10191345 C27.6720911 1.34460603 31.2489183 1.59381948 34.82574463 1.84365845 C37.40883226 2.02149684 39.9919215 2.19931192 42.57501221 2.37710571 C77.13540257 4.76773534 111.6789901 7.39775624 146.22099304 10.03865051 C148.50919613 10.21357118 150.79741284 10.38831268 153.08563232 10.5630188 C183.16545777 12.86057102 213.2363041 15.24488876 243.29296875 17.82928467 C268.25309437 19.97280444 293.22475555 21.96614587 318.19763565 23.95463562 C377.3441386 28.66448742 377.3441386 28.66448742 402.63824463 30.78115845 C403.76071594 30.87507874 404.88318726 30.96899902 406.03967285 31.06576538 C418.73864047 32.12987634 431.43654228 33.20660464 444.13450718 34.28259945 C451.47099871 34.90425072 458.80756197 35.52505228 466.14414883 36.14557743 C471.48314245 36.59729627 476.82199958 37.0505842 482.16074657 37.50520802 C486.34715386 37.86142456 490.53369774 38.21601884 494.72027588 38.57022095 C495.53302538 38.63911718 496.34577488 38.70801342 497.18315315 38.77899742 C506.67088082 39.58162214 516.16043636 40.34830557 525.65533447 41.06143188 C526.56141166 41.12973143 527.46748884 41.19803097 528.40102291 41.26840019 C532.76378639 41.59658329 537.12681952 41.92005836 541.49049377 42.23590088 C543.04845961 42.35162954 544.606418 42.4674585 546.16436768 42.58340454 C546.87425276 42.63313793 547.58413784 42.68287132 548.31553459 42.73411179 C551.26702465 42.95680462 553.7520751 43.27743527 556.57574463 44.21865845 C556.57574463 291.71865845 556.57574463 539.21865845 556.57574463 794.21865845 C465.86699463 794.46615845 375.15824463 794.71365845 281.70074463 794.96865845 C238.71913086 795.13253052 238.71913086 795.13253052 194.86920166 795.29971313 C159.91143799 795.35391235 159.91143799 795.35391235 143.55252075 795.36398315 C131.36006334 795.37591161 119.16840631 795.4276262 106.97617328 795.49873958 C94.53262612 795.57033479 82.08958204 795.59666192 69.64583682 795.57999785 C62.89649371 795.57215934 56.14883764 795.584128 49.39967942 795.64924002 C43.28890122 795.70783387 37.18068844 795.71042082 31.06978989 795.66947174 C28.86806389 795.66440761 26.66617398 795.67941722 24.46476722 795.71724939 C9.49800855 795.9592134 0.27561336 793.2343804 -11.44280173 783.78842369 C-14.72088307 781.19143225 -18.172356 778.84504524 -21.61175537 776.46865845 C-23.0203025 775.4700605 -24.42809177 774.47039062 -25.83441162 773.46865845 C-33.98917246 767.67990663 -42.22123945 762.00081596 -50.43499756 756.29629517 C-53.40443698 754.23243291 -56.3717327 752.1655271 -59.33831787 750.0975647 C-69.23706339 743.19936353 -79.14504449 736.31792804 -89.13616943 729.55386353 C-89.84869873 729.06941772 -90.56122803 728.58497192 -91.29534912 728.08584595 C-91.90306152 727.67447388 -92.51077393 727.26310181 -93.13690186 726.83926392 C-93.89172852 726.30446411 -94.64655518 725.76966431 -95.42425537 725.21865845 C-96.06375687 724.84802061 -96.70325838 724.47738278 -97.36213871 724.0955135 C-102.9621126 720.53953381 -102.9621126 720.53953381 -104.17088718 717.08466952 C-104.45485377 714.47174069 -104.48622594 711.95893939 -104.43377781 709.3308773 C-104.44570493 708.33478567 -104.45763205 707.33869403 -104.46992061 706.31241781 C-104.50023233 702.95902459 -104.47332813 699.60851807 -104.44685364 696.25512695 C-104.45678344 693.83310205 -104.47019916 691.41108935 -104.48680967 688.98910105 C-104.51483869 683.71516824 -104.5178904 678.44209278 -104.49902344 673.16818237 C-104.4710432 665.32563073 -104.48870575 657.48364476 -104.51535621 649.64111242 C-104.56138737 635.6336446 -104.561406 621.62645771 -104.54176645 607.61894459 C-104.52463874 595.35714236 -104.52194211 583.09544613 -104.53372002 570.83363724 C-104.53447622 570.02061927 -104.53523243 569.20760129 -104.53601155 568.36994641 C-104.539084 565.0696641 -104.54220239 561.76938184 -104.54540337 558.46909965 C-104.57510051 527.49628557 -104.55728411 496.52365432 -104.51886407 465.55085866 C-104.48504983 438.03879839 -104.49549168 410.52708301 -104.54266357 383.01504517 C-104.59552377 352.10833728 -104.61896553 321.20182768 -104.59641451 290.29507601 C-104.59409487 286.9989088 -104.59185628 283.70274154 -104.58965874 280.40657425 C-104.58909354 279.59496984 -104.58852835 278.78336544 -104.58794602 277.94716696 C-104.57995907 265.69779177 -104.5945769 253.44857679 -104.62034798 241.19923019 C-104.6495663 227.26458954 -104.64680549 213.33036597 -104.60187335 199.39575855 C-104.57764426 191.59946084 -104.57807907 183.8040966 -104.61433891 176.00784039 C-104.63862707 170.18313164 -104.61575458 164.35922303 -104.57464366 158.53458793 C-104.56529157 156.18060903 -104.57108499 153.82651049 -104.59363426 151.47262101 C-104.78242801 130.18505528 -104.78242801 130.18505528 -96.66853899 121.42536318 C-95.92792539 120.69715062 -95.1873118 119.96893806 -94.42425537 119.21865845 C-93.3236913 117.81771733 -92.24130469 116.4018814 -91.19378662 114.96084595 C-90.20888674 113.67118953 -89.22320234 112.38213189 -88.23675537 111.09365845 C-87.69341553 110.38338501 -87.15007568 109.67311157 -86.590271 108.9413147 C-81.97958438 102.92370999 -77.32555192 96.94038546 -72.66473389 90.96157837 C-67.03105024 83.72856455 -61.4658158 76.44416545 -55.90423584 69.15567017 C-52.09171998 64.1658152 -48.25573357 59.19395477 -44.42425537 54.21865845 C-42.75730245 52.05221193 -41.09078124 49.88543348 -39.42425537 47.71865845 C-38.5909299 46.63531907 -37.75759657 45.55198573 -36.92425537 44.46865845 C-36.51175537 43.93240845 -36.09925537 43.39615845 -35.67425537 42.84365845 C-28.79925537 33.90615845 -28.79925537 33.90615845 -21.92425537 24.96865845 C-21.51111084 24.43152222 -21.09796631 23.89438599 -20.67230225 23.3409729 C-19.84566839 22.26644592 -19.01884794 21.19206246 -18.1918335 20.11782837 C-16.0043823 17.27595605 -13.82099497 14.43107163 -11.64300537 11.5819397 C-11.18796631 10.98768188 -10.73292725 10.39342407 -10.26409912 9.78115845 C-9.39050995 8.64014402 -8.51805821 7.49825758 -7.64691162 6.3553772 C-2.98275322 0.26903279 -2.98275322 0.26903279 0 0 Z " fill="#010101" transform="translate(373.42425537109375,133.78134155273438)"/>
<path d="M0 0 C396 0 792 0 1200 0 C1200 396 1200 792 1200 1200 C804 1200 408 1200 0 1200 C0 804 0 408 0 0 Z M42 35 C42 408.56 42 782.12 42 1167 C412.59 1167 783.18 1167 1165 1167 C1165 793.44 1165 419.88 1165 35 C794.41 35 423.82 35 42 35 Z " fill="#FCB217" transform="translate(0,0)"/>
<path d="M0 0 C0.66 0 1.32 0 2 0 C2.350625 0.86625 2.70125 1.7325 3.0625 2.625 C5.87676194 7.52726274 9.58269803 11.19423268 15 13 C21.77607074 13.76627617 26.80715104 13.42335078 32.41015625 9.3671875 C35.38922851 6.80533175 36.76247799 4.71256604 38 1 C38.99 1 39.98 1 41 1 C41.37125 1.886875 41.7425 2.77375 42.125 3.6875 C44.56419644 7.99674704 47.5074588 10.7537294 52 13 C62.0371529 13.82014023 62.0371529 13.82014023 71 10 C73.29257876 7.45269027 75.09945441 4.85081838 77 2 C80 3 80 3 81.5625 5.75 C84.4769229 10.32664128 88.93733414 12.407006 94 14 C100.16173433 14.62174127 105.2435879 13.03656179 110.3046875 9.54296875 C113.05218761 7.04236381 114.42508721 4.34668969 116 1 C118.25245881 3.68841859 119.88213958 5.64641875 121 9 C122.83284443 10.12516085 122.83284443 10.12516085 125 11 C125.57492187 11.34160156 126.14984375 11.68320312 126.7421875 12.03515625 C131.89134019 14.23557271 139.0654735 14.05623025 144.30078125 12.171875 C146.35989599 11.03678402 146.35989599 11.03678402 149 9 C149.99 8.34 150.98 7.68 152 7 C152 87.52 152 168.04 152 251 C142.1 251.495 142.1 251.495 132 252 C132 287.31 132 322.62 132 359 C125.73 359 119.46 359 113 359 C113 322.37 113 285.74 113 248 C111.02 248 109.04 248 107 248 C107 284.63 107 321.26 107 359 C75.32 359 43.64 359 11 359 C10.67 322.7 10.34 286.4 10 249 C8.68 249 7.36 249 6 249 C5.67 285.3 5.34 321.6 5 359 C0.38 359 -4.24 359 -9 359 C-9 324.02 -9 289.04 -9 253 C-18.24 253 -27.48 253 -37 253 C-37 170.17 -37 87.34 -37 2 C-35.68 3.65 -34.36 5.3 -33 7 C-27.95502125 11.64669096 -23.00796043 13.52438311 -16.08203125 13.3125 C-10.78330196 12.51719354 -6.5474324 9.9531836 -3.0625 5.9375 C-0.88631397 3.13617085 -0.88631397 3.13617085 0 0 Z " fill="#FCB217" transform="translate(472,438)"/>
<path d="M0 0 C0.64235596 0.01691895 1.28471191 0.03383789 1.9465332 0.05126953 C3.41259102 0.09423465 4.87836487 0.14768309 6.34375 0.20947266 C9.02044122 0.32117793 11.6971476 0.40157426 14.375 0.48046875 C24.86516396 0.81897533 35.32116309 1.3932101 45.78515625 2.19921875 C64.2895977 3.56785424 82.8199162 4.47145116 101.34924316 5.42849731 C111.88949045 5.97312734 122.42917954 6.52838003 132.96875 7.0859375 C133.99508797 7.14019709 135.02142593 7.19445667 136.07886505 7.25036049 C151.07896239 8.04484224 166.07334566 8.89301347 181.0625 9.875 C200.15466325 11.12523564 219.25550116 12.16547303 238.36124039 13.18206787 C264.70809895 14.58399072 291.04501612 16.07511053 317.37487793 17.77113342 C328.56122991 18.49154526 339.74911467 19.18695318 350.9375 19.875 C351.97653473 19.9389093 353.01556946 20.0028186 354.08609009 20.06866455 C367.63764613 20.89972675 381.19045814 21.67218008 394.74993896 22.36114502 C405.99232596 22.93361295 417.23104334 23.5610769 428.46875 24.21875 C429.17216082 24.25990747 429.87557163 24.30106495 430.60029793 24.34346962 C434.25976251 24.55769753 437.91920707 24.77226595 441.5786438 24.98696899 C474.31709918 26.9076347 507.05923216 28.65410669 539.8125 30.3125 C539.8125 47.1425 539.8125 63.9725 539.8125 81.3125 C529.31735794 81.3125 518.99545349 81.30327674 508.546875 80.7265625 C507.34967834 80.66471771 506.15248169 80.60287292 504.91900635 80.53915405 C501.13326063 80.34296348 497.34787593 80.14068921 493.5625 79.9375 C488.64076673 79.67692987 483.71888414 79.41936773 478.796875 79.1640625 C477.49559158 79.09652771 476.19430817 79.02899292 474.85359192 78.95941162 C463.29958914 78.36645334 451.74215009 77.86222793 440.18359375 77.3671875 C416.44510897 76.35018749 392.71065225 75.25497793 368.97680664 74.13525391 C364.38929667 73.9188905 359.8017314 73.70376215 355.21411133 73.48974609 C330.76695927 72.34907058 306.32642832 71.16017503 281.89477539 69.72363281 C274.13438038 69.26813759 266.3726357 68.87799256 258.60650635 68.53591919 C254.22572873 68.34270774 249.8453129 68.14146881 245.46484375 67.94140625 C244.45405762 67.89537766 243.44327148 67.84934906 242.40185547 67.80192566 C232.53930485 67.35056652 222.67785554 66.87701808 212.81640625 66.40234375 C176.63047646 64.66195555 140.44394744 62.96276409 104.24938011 61.41149426 C83.98971691 60.54311415 63.73256183 59.63422811 43.4788208 58.63645935 C39.47042673 58.43932196 35.4617926 58.25013405 31.45263672 58.0690918 C29.61164587 57.98503335 27.77066277 57.90080507 25.9296875 57.81640625 C25.03522919 57.77590652 24.14077087 57.7354068 23.21920776 57.69367981 C18.55085089 57.47374632 13.91120475 57.16830746 9.2578125 56.72265625 C-1.82356385 55.792503 -1.82356385 55.792503 -11.69140625 60.1875 C-15.00325791 63.09629465 -17.92794424 66.29440882 -20.76855469 69.65966797 C-22.44894788 71.6170427 -24.2710338 73.28560143 -26.25 74.9375 C-26.84554687 75.45183594 -27.44109375 75.96617187 -28.0546875 76.49609375 C-29.25748846 77.52045721 -30.46065053 78.54439812 -31.66503906 79.56689453 C-38.80772012 85.63290597 -45.84818759 91.76986826 -52.70703125 98.15625 C-56.1638798 101.3746952 -59.66790445 104.52194872 -63.23828125 107.61328125 C-67.26845661 111.12656038 -71.21896612 114.72996334 -75.1875 118.3125 C-76.85390851 119.81278679 -78.52057353 121.31278872 -80.1875 122.8125 C-81.0125 123.555 -81.8375 124.2975 -82.6875 125.0625 C-90.1875 131.8125 -90.1875 131.8125 -92.68359375 134.05859375 C-94.36379851 135.57104015 -96.04347951 137.08406859 -97.72265625 138.59765625 C-100.2090224 140.83807582 -102.69822995 143.07530793 -105.1875 145.3125 C-106.0434375 146.0859375 -106.899375 146.859375 -107.78125 147.65625 C-108.5959375 148.3884375 -109.410625 149.120625 -110.25 149.875 C-110.98347656 150.53628906 -111.71695312 151.19757813 -112.47265625 151.87890625 C-114.1875 153.3125 -114.1875 153.3125 -115.1875 153.3125 C-115.44350413 145.90653439 -115.6383714 138.50153648 -115.75743389 131.09202671 C-115.8146132 127.65032702 -115.89199683 124.21167408 -116.01733398 120.77172852 C-116.16084068 116.80783931 -116.21328757 112.84513905 -116.26171875 108.87890625 C-116.31849289 107.65667862 -116.37526703 106.43445099 -116.4337616 105.17518616 C-116.43754638 99.88857777 -116.35134853 96.63662257 -112.77420044 92.56686401 C-110.00278564 90.29168642 -107.17909958 88.28444547 -104.1875 86.3125 C-103.13247915 85.42329511 -102.09471785 84.51214083 -101.09375 83.5625 C-96.78055203 79.52937982 -92.41765304 75.6349707 -87.8125 71.9375 C-83.0160929 68.07031137 -78.5170854 63.96269284 -74.02392578 59.75439453 C-69.83438433 55.8526747 -65.46586175 52.23932513 -61 48.65625 C-57.78900195 45.98041829 -54.73720863 43.16891724 -51.6875 40.3125 C-46.94883536 35.87417326 -42.06630674 31.7210775 -37 27.65625 C-33.21343412 24.50077844 -29.6385714 21.14103195 -26.04321289 17.77148438 C-21.69320404 13.71867302 -17.18501545 9.94812129 -12.52734375 6.25 C-10.14004698 4.38310535 -10.14004698 4.38310535 -8.265625 2.08203125 C-5.40655055 -0.35248139 -3.72376235 -0.12426825 0 0 Z " fill="#FCB217" transform="translate(387.1875,315.6875)"/>
<path d="M0 0 C1.02384293 -0.00571014 2.04768585 -0.01142029 3.10255432 -0.01730347 C4.22597229 -0.01842133 5.34939026 -0.01953918 6.5068512 -0.02069092 C7.69126297 -0.02565582 8.87567474 -0.03062073 10.09597778 -0.03573608 C13.35378044 -0.04785919 16.61154715 -0.05531097 19.86936831 -0.05974674 C21.91741186 -0.06268614 23.96544991 -0.06679334 26.01349068 -0.07125092 C32.45600941 -0.08495035 38.89851542 -0.09459562 45.3410477 -0.09845281 C52.70825559 -0.10288981 60.07527386 -0.12022032 67.44242424 -0.1494534 C73.17281488 -0.17137579 78.90315356 -0.18117358 84.63358551 -0.18249393 C88.03609341 -0.18352385 91.43828534 -0.19056511 94.84077263 -0.20731354 C168.9665367 -0.54555594 168.9665367 -0.54555594 194.04420471 20.14044189 C198.6393442 25.57847679 201.42312887 30.61282484 201.32936096 37.88653564 C200.42644778 45.02326039 196.29049173 51.50318291 190.77467346 55.98419189 C180.35497347 62.77060172 169.26609621 65.84045157 157.23170471 68.32794189 C156.48735168 68.48287109 155.74299866 68.63780029 154.97608948 68.79742432 C138.30581368 72.011119 121.84204752 72.40608964 104.91920471 72.26544189 C102.78509439 72.25537993 100.6509794 72.24625983 98.51686096 72.23809814 C93.35909502 72.21809129 88.20199561 72.17890098 83.04420471 72.14044189 C83.04420471 80.39044189 83.04420471 88.64044189 83.04420471 97.14044189 C88.54705889 98.37481382 88.54705889 98.37481382 94.05348206 99.59307861 C94.73877991 99.75050537 95.42407776 99.90793213 96.13014221 100.07012939 C97.18274231 100.30578613 97.18274231 100.30578613 98.25660706 100.54620361 C100.04420471 101.14044189 100.04420471 101.14044189 102.04420471 103.14044189 C102.16920471 105.76544189 102.16920471 105.76544189 102.04420471 108.14044189 C99.1184122 109.80829197 97.02486275 110.39104721 93.66636658 110.39440918 C92.79710037 110.40004883 91.92783417 110.40568848 91.03222656 110.41149902 C89.61382225 110.40542633 89.61382225 110.40542633 88.16676331 110.39923096 C86.66377937 110.40448792 86.66377937 110.40448792 85.13043213 110.40985107 C81.81776508 110.41865542 78.50531144 110.41282461 75.19264221 110.40606689 C72.89386453 110.4074137 70.59508713 110.40935436 68.29631042 110.41186523 C63.47950019 110.41481456 58.66276414 110.41052413 53.84596252 110.40118408 C47.66052044 110.3897769 41.47525166 110.39635831 35.2898159 110.40832901 C30.54418115 110.4155418 25.79858778 110.41326258 21.05295181 110.40807343 C18.77149561 110.40673598 16.4900357 110.40838793 14.20858383 110.41303253 C11.02657299 110.41808959 7.84484661 110.41039961 4.66285706 110.39923096 C3.71320572 110.40327942 2.76355438 110.40732788 1.78512573 110.41149902 C0.4896859 110.40303955 0.4896859 110.40303955 -0.83192444 110.39440918 C-1.96070228 110.3932781 -1.96070228 110.3932781 -3.11228371 110.39212418 C-4.95579529 110.14044189 -4.95579529 110.14044189 -6.95579529 108.14044189 C-6.95579529 105.83044189 -6.95579529 103.52044189 -6.95579529 101.14044189 C-2.33579529 100.15044189 2.28420471 99.16044189 7.04420471 98.14044189 C7.37420471 70.09044189 7.70420471 42.04044189 8.04420471 13.14044189 C2.76420471 11.82044189 -2.51579529 10.50044189 -7.95579529 9.14044189 C-7.95579529 6.50044189 -7.95579529 3.86044189 -7.95579529 1.14044189 C-5.00288697 0.15613912 -3.0790018 0.0102906 0 0 Z " fill="#FAB217" transform="translate(504.95579528808594,977.8595581054688)"/>
<path d="M0 0 C1.51052193 -0.00856522 1.51052193 -0.00856522 3.05155945 -0.01730347 C4.15627594 -0.01842133 5.26099243 -0.01953918 6.39918518 -0.02069092 C8.14654213 -0.02813828 8.14654213 -0.02813828 9.92919922 -0.03573608 C13.13328468 -0.04785883 16.33733359 -0.05531095 19.54143786 -0.05974674 C21.55597951 -0.06268639 23.57051558 -0.06679365 25.5850544 -0.07125092 C31.92292168 -0.08495061 38.26077602 -0.09459559 44.59865707 -0.09845281 C51.84474528 -0.10288901 59.09064063 -0.12021549 66.33667034 -0.1494534 C71.97364355 -0.17138194 77.61056393 -0.18117391 83.24757916 -0.18249393 C86.59419762 -0.18352349 89.94049476 -0.19055827 93.28709221 -0.20731354 C169.33535711 -0.56025648 169.33535711 -0.56025648 193.12013245 20.14044189 C197.90602771 24.90360131 200.40702644 29.08865803 200.49513245 35.89044189 C200.33431885 42.86467381 198.91548607 47.09458815 194.2021637 52.23028564 C180.02246875 65.70727004 158.90855577 68.80948679 140.12013245 71.14044189 C138.93894836 71.28727417 138.93894836 71.28727417 137.73390198 71.43707275 C126.82137683 72.56074067 115.82534039 72.24839563 104.87013245 72.20294189 C102.75685226 72.19791722 100.64357091 72.19335603 98.5302887 72.18927002 C93.39351762 72.17919792 88.25690951 72.15960897 83.12013245 72.14044189 C83.61513245 84.02044189 83.61513245 84.02044189 84.12013245 96.14044189 C89.43373769 98.84158485 89.43373769 98.84158485 94.80763245 100.20294189 C98.01717856 100.78498394 99.28985037 101.25358718 102.12013245 103.14044189 C102.30763245 105.76544189 102.30763245 105.76544189 102.12013245 108.14044189 C99.21189234 109.79520565 97.13111822 110.39102351 93.79371643 110.39440918 C92.9357547 110.40004883 92.07779297 110.40568848 91.1938324 110.41149902 C90.26072235 110.40745056 89.3276123 110.4034021 88.3662262 110.39923096 C87.37720306 110.4027356 86.38817993 110.40624023 85.3691864 110.40985107 C82.09859711 110.41865652 78.82822396 110.41282334 75.55763245 110.40606689 C73.28606627 110.40741388 71.01450037 110.4093547 68.74293518 110.41186523 C63.98159542 110.41481489 59.22033068 110.41052388 54.45899963 110.40118408 C48.352224 110.38978971 42.24562416 110.39635001 36.13885498 110.40832901 C31.44804049 110.41555183 26.75726776 110.41325772 22.06645203 110.40807343 C19.81455973 110.4067381 17.56266365 110.40838054 15.31077576 110.41303253 C12.16509438 110.41810461 9.01969876 110.41037772 5.8740387 110.39923096 C4.94092865 110.40327942 4.0078186 110.40732788 3.0464325 110.41149902 C1.7594899 110.40303955 1.7594899 110.40303955 0.44654846 110.39440918 C-0.66840248 110.3932781 -0.66840248 110.3932781 -1.80587769 110.39212418 C-4.17968133 110.10405897 -5.81374957 109.31604536 -7.87986755 108.14044189 C-7.87986755 106.16044189 -7.87986755 104.18044189 -7.87986755 102.14044189 C-2.69152063 99.54626843 0.70136498 99.78231864 7.12013245 99.14044189 C7.45013245 70.76044189 7.78013245 42.38044189 8.12013245 13.14044189 C2.84013245 11.82044189 -2.43986755 10.50044189 -7.87986755 9.14044189 C-7.87986755 6.50044189 -7.87986755 3.86044189 -7.87986755 1.14044189 C-4.94772294 0.16306036 -3.05439182 0.01038036 0 0 Z " fill="#FBB217" transform="translate(280.87986755371094,977.8595581054688)"/>
<path d="M0 0 C1.02528809 -0.00571014 2.05057617 -0.01142029 3.10693359 -0.01730347 C4.23192261 -0.01842133 5.35691162 -0.01953918 6.51599121 -0.02069092 C7.70200928 -0.02565582 8.88802734 -0.03062073 10.10998535 -0.03573608 C13.37185296 -0.04785856 16.63368467 -0.05531061 19.89557076 -0.05974674 C21.94561662 -0.06268582 23.99565699 -0.06679292 26.04570007 -0.07125092 C32.49302217 -0.08494911 38.94033154 -0.09459542 45.38766718 -0.09845281 C52.76337499 -0.10289177 60.13889359 -0.12023232 67.51454401 -0.1494534 C73.25001453 -0.17136212 78.98543313 -0.18117286 84.72094488 -0.18249393 C88.12733309 -0.18352464 91.53340581 -0.19057989 94.93977356 -0.20731354 C171.41062522 -0.55558065 171.41062522 -0.55558065 195.52966309 21.48809814 C199.4449922 25.77873083 201.25502261 30.22386303 201.59997559 36.01544189 C201.24234227 43.52574143 197.90675967 49.71454304 192.53747559 54.89044189 C179.76330324 65.0381489 162.21721021 68.28184501 146.41247559 70.39044189 C145.14009033 70.56027588 143.86770508 70.73010986 142.5567627 70.90509033 C123.18350919 73.26241778 103.50839778 72.45322779 84.03747559 72.14044189 C84.53247559 84.51544189 84.53247559 84.51544189 85.03747559 97.14044189 C88.89097181 98.68184039 92.35061727 99.79856406 96.34997559 100.76544189 C97.4186084 101.02583252 98.48724121 101.28622314 99.58825684 101.55450439 C100.80062012 101.84454346 100.80062012 101.84454346 102.03747559 102.14044189 C103.16247559 106.89044189 103.16247559 106.89044189 102.03747559 109.14044189 C97.31343236 110.62702892 92.2552478 110.28814442 87.3536377 110.28570557 C86.38397568 110.28906418 85.41431366 110.29242279 84.41526794 110.29588318 C81.21510533 110.3053702 78.01499513 110.30733491 74.81481934 110.30841064 C72.5895231 110.31162388 70.36422707 110.31498801 68.13893127 110.3184967 C63.4777477 110.32448169 58.81658265 110.32633716 54.15539551 110.32574463 C48.1775759 110.32564284 42.19987461 110.33931564 36.22208309 110.35651684 C31.62821403 110.36762239 27.03437375 110.36966431 22.44049263 110.3691349 C20.23604485 110.37031641 18.03159637 110.37474769 15.82716179 110.38246727 C12.74866239 110.39224149 9.67042233 110.38939964 6.59191895 110.38336182 C5.67908142 110.38898132 4.7662439 110.39460083 3.82574463 110.40039062 C2.98605637 110.39619614 2.1463681 110.39200165 1.28123474 110.38768005 C0.19035506 110.3884972 0.19035506 110.3884972 -0.9225626 110.38933086 C-3.27887711 110.10184475 -4.91024777 109.30518987 -6.96252441 108.14044189 C-6.96252441 105.83044189 -6.96252441 103.52044189 -6.96252441 101.14044189 C-5.96350098 100.93548096 -4.96447754 100.73052002 -3.93518066 100.51934814 C-2.6448291 100.24993408 -1.35447754 99.98052002 -0.02502441 99.70294189 C1.26274902 99.43610596 2.55052246 99.16927002 3.87731934 98.89434814 C6.88386438 98.46862573 6.88386438 98.46862573 8.03747559 97.14044189 C8.1325538 94.55405152 8.16303934 91.99445629 8.15100098 89.40777588 C8.151147 88.5980835 8.15129303 87.78839111 8.15144348 86.9541626 C8.15074412 84.26492681 8.14295068 81.5757594 8.13513184 78.88653564 C8.13326774 77.02708474 8.1318438 75.16763334 8.13084412 73.30818176 C8.12701829 68.40415094 8.11718747 63.50014954 8.10614014 58.59613037 C8.09592739 53.59593097 8.09134679 48.59572683 8.08630371 43.59552002 C8.07556525 33.77714769 8.05848807 23.95879723 8.03747559 14.14044189 C7.43491943 13.94345703 6.83236328 13.74647217 6.21154785 13.54351807 C5.41289307 13.28030762 4.61423828 13.01709717 3.79138184 12.74591064 C2.60911011 12.35762085 2.60911011 12.35762085 1.4029541 11.96148682 C-1.80078894 10.84948477 -4.86707428 9.52351536 -7.96252441 8.14044189 C-7.96252441 5.83044189 -7.96252441 3.52044189 -7.96252441 1.14044189 C-5.0077822 0.15552782 -3.08117015 0.01028284 0 0 Z " fill="#FBB217" transform="translate(727.9625244140625,977.8595581054688)"/>
<path d="M0 0 C101.31 0 202.62 0 307 0 C307 13.86 307 27.72 307 42 C306 43 306 43 304.00990099 43.1241985 C303.12629178 43.12381878 302.24268257 43.12343906 301.33229733 43.12304783 C300.31663816 43.12503888 299.300979 43.12702993 298.25454229 43.12908131 C297.12518918 43.12616847 295.99583607 43.12325563 294.83226013 43.12025452 C293.04850789 43.12153615 293.04850789 43.12153615 291.22872025 43.12284368 C287.91309985 43.12421188 284.59753775 43.12106438 281.28192437 43.11606562 C277.71203809 43.11176445 274.14215376 43.11320731 270.57226562 43.1139679 C264.38225817 43.11449334 258.19226121 43.11134438 252.00225639 43.10573006 C243.05244663 43.09761786 234.10264198 43.09500013 225.15282894 43.09374207 C210.6338655 43.0915511 196.11490766 43.08488982 181.59594727 43.07543945 C167.48852568 43.06626648 153.38110561 43.05918508 139.27368164 43.05493164 C137.97025216 43.05453756 137.97025216 43.05453756 136.64049076 43.05413551 C132.28139667 43.05283051 127.92230257 43.05156679 123.56320846 43.05032361 C87.37546835 43.03994962 51.18773461 43.0223301 15 43 C14.05090773 40.81242109 13.10455448 38.62372122 12.15966797 36.43432617 C11.76251839 35.52006489 11.76251839 35.52006489 11.35734558 34.58733368 C8.63586294 28.27023079 6.3484082 21.82012843 4.125 15.3125 C3.7228125 14.16072266 3.320625 13.00894531 2.90625 11.82226562 C0 3.38524394 0 3.38524394 0 0 Z " fill="#F9B017" transform="translate(620,853)"/>
<path d="M0 0 C1.7144632 -0.00068733 1.7144632 -0.00068733 3.46356201 -0.00138855 C4.72952209 0.01042953 5.99548218 0.02224762 7.29980469 0.03442383 C8.66888356 0.04149738 10.03796318 0.04842518 11.40704346 0.05522156 C30.61610089 0.18820656 49.81967897 0.84314533 69.01816559 1.4524231 C72.25636532 1.5550544 75.49460182 1.65644989 78.73284912 1.75756836 C92.94311019 2.20227348 107.15274415 2.66464836 121.36207581 3.13806915 C124.39464312 3.23889382 127.42723668 3.33888997 130.45983887 3.43865967 C141.21932052 3.79353888 151.97801412 4.16479816 162.73596191 4.56356812 C165.95478725 4.68262019 169.17373302 4.79586072 172.39294434 4.90396118 C176.13119802 5.0299747 179.86873887 5.16900862 183.60612869 5.31841469 C185.58544164 5.39456747 187.56523312 5.45795733 189.54501343 5.52079773 C198.32892925 5.89331005 207.04199023 6.6280602 213.47167969 13.24145508 C217.83565518 19.02077397 218.4602453 24.09494947 217.47167969 31.24145508 C215.62933953 37.9429674 211.32891582 41.76560037 205.47167969 45.24145508 C202.66523343 46.17693716 200.98018185 46.36493863 198.08018494 46.35847473 C197.20216249 46.35815341 196.32414003 46.35783209 195.41951084 46.35750103 C194.47371631 46.35119073 193.52792177 46.34488043 192.5534668 46.33837891 C191.07604586 46.33291282 191.07604586 46.33291282 189.56877804 46.32733631 C179.76157684 46.27226664 169.9647089 46.00833459 160.16308594 45.69067383 C158.25607147 45.63151097 156.34904804 45.57263617 154.4420166 45.51402283 C148.30590417 45.32411754 142.17002881 45.12716349 136.03417969 44.92895508 C134.98566204 44.89515495 133.93714439 44.86135483 132.85685349 44.82653046 C129.63332523 44.72259735 126.40980145 44.61852654 123.1862793 44.5144043 C121.57021837 44.46221237 121.57021837 44.46221237 119.92150974 44.40896606 C114.40752987 44.23078401 108.89357467 44.05188983 103.37965393 43.87188721 C90.35185705 43.44875467 77.32361982 43.06485036 64.29359436 42.71730042 C57.24375206 42.52875867 50.19440501 42.32418429 43.14515591 42.11471844 C38.38793715 41.97425514 33.63080577 41.84216341 28.87283325 41.72982788 C24.42730959 41.62473267 19.98294247 41.49774818 15.53849792 41.35424995 C13.92202538 41.30597999 12.30528952 41.26570484 10.68840027 41.23435783 C0.46599639 41.03113951 -8.54527203 40.34907957 -16.02832031 32.67895508 C-20.01205685 26.2053832 -20.28555147 20.83269743 -19.52832031 13.24145508 C-15.8979607 5.42221898 -8.67042264 -0.01875115 0 0 Z " fill="#FBB217" transform="translate(681.5283203125,426.758544921875)"/>
<path d="M0 0 C3.4627157 1.28973946 6.46317922 2.79389238 9.5625 4.80078125 C10.86513794 5.63826904 10.86513794 5.63826904 12.1940918 6.49267578 C13.1200415 7.09321777 14.04599121 7.69375977 15 8.3125 C16.98496468 9.58834862 18.97065975 10.86306152 20.95703125 12.13671875 C21.96459473 12.78302246 22.9721582 13.42932617 24.01025391 14.09521484 C28.54225363 16.98257903 33.1121865 19.80694976 37.6875 22.625 C44.25195466 26.67304992 50.7970322 30.74853706 57.3125 34.875 C64.55020218 39.4572469 71.8006009 44.01868379 79.0625 48.5625 C79.98264893 49.13919434 80.90279785 49.71588867 81.85083008 50.31005859 C83.7882906 51.52132921 85.73906126 52.71147915 87.70019531 53.8840332 C90.16968785 55.46757062 92.32468102 57.03906169 94.58886719 58.87182617 C108.36276565 69.40248696 123.38573127 68.50545244 139.90393066 68.21887207 C143.6455511 68.16602258 147.38699438 68.17684462 151.12890625 68.18164062 C158.42049818 68.18193679 165.70919956 68.11387207 173 68 C171.22466279 74.0219419 169.37849502 80.00475726 167.3359375 85.94140625 C167.09839752 86.63515854 166.86085754 87.32891083 166.61611938 88.04368591 C166.12136742 89.48657495 165.6256268 90.92912536 165.12890625 92.37133789 C164.36618005 94.58813442 163.60874934 96.80669676 162.8515625 99.02539062 C162.36750395 100.43500454 161.88314048 101.84451379 161.3984375 103.25390625 C161.17239838 103.91733536 160.94635925 104.58076447 160.71347046 105.26429749 C159.11462406 109.88537594 159.11462406 109.88537594 158 111 C156.5681485 111.15535095 155.12893354 111.2436702 153.68994141 111.30395508 C152.77032623 111.34261185 151.85071106 111.38126862 150.90322876 111.4210968 C146.61370045 111.55945969 142.32425616 111.65763988 138.03320312 111.73461914 C135.79261735 111.78581877 133.5524212 111.86034062 131.31347656 111.96020508 C115.0860656 112.67042654 104.93159475 110.47515243 91.99542236 100.5116272 C89.19201782 98.38791513 86.26334613 96.56688408 83.2734375 94.71484375 C81.30684873 93.45642109 79.34069732 92.19731468 77.375 90.9375 C76.31434326 90.2583252 75.25368652 89.57915039 74.16088867 88.87939453 C67.52851083 84.62948229 60.91051184 80.35806768 54.30224609 76.07080078 C48.72051405 72.45467507 43.11296605 68.87991144 37.5 65.3125 C29.62314339 60.30576161 21.74834423 55.29587714 13.88330078 50.27059937 C12.20923782 49.20138383 10.53431189 48.13351982 8.859375 47.06567383 C7.34150391 46.09537231 7.34150391 46.09537231 5.79296875 45.10546875 C4.8908667 44.52949951 3.98876465 43.95353027 3.05932617 43.36010742 C1 42 1 42 0 41 C-0.08871273 37.97022196 -0.1151935 34.96332978 -0.09765625 31.93359375 C-0.0962413 31.02497086 -0.09482635 30.11634796 -0.09336853 29.18019104 C-0.08775193 26.26592779 -0.07519665 23.35174019 -0.0625 20.4375 C-0.05748714 18.46679798 -0.05292386 16.49609476 -0.04882812 14.52539062 C-0.03777711 9.68356441 -0.02050138 4.84179505 0 0 Z " fill="#FBB117" transform="translate(272,785)"/>
<path d="M0 0 C1.32 0 2.64 0 4 0 C4 33.33 4 66.66 4 101 C14.23 101 24.46 101 35 101 C34.95875 95.9675 34.9175 90.935 34.875 85.75 C34.87741699 84.16799805 34.87983398 82.58599609 34.88232422 80.95605469 C34.8567041 79.70727539 34.83108398 78.45849609 34.8046875 77.171875 C34.78897705 75.2552002 34.78897705 75.2552002 34.77294922 73.29980469 C34.30320071 69.74928104 34.30320071 69.74928104 31.09423828 67.71191406 C30.07313965 67.14698242 29.05204102 66.58205078 28 66 C23.2146777 60.69734556 22.69762277 56.6629316 22.7890625 49.72265625 C23.19160757 44.52684308 25.22779924 41.49715616 29.0625 38.1875 C32 36 32 36 34 35 C34.33 23.78 34.66 12.56 35 1 C36.65 0.67 38.3 0.34 40 0 C39.98839844 1.02883301 39.97679687 2.05766602 39.96484375 3.11767578 C39.93218539 6.95372891 39.95223263 10.78804619 39.98779297 14.62402344 C39.99587852 16.28059077 39.98987849 17.93729152 39.96923828 19.59375 C39.49265847 28.98324897 39.49265847 28.98324897 42.77734375 37.359375 C44.79271975 38.83901814 46.7707916 39.88824499 49 41 C52.59239762 45.93954673 52.82032577 51.09365446 52 57 C50.29198337 62.3628049 47.75244465 65.87339167 43 69 C42.01 69.495 42.01 69.495 41 70 C40.67 80.23 40.34 90.46 40 101 C49.9 101 59.8 101 70 101 C70 67.67 70 34.34 70 0 C71.98 0 73.96 0 76 0 C76.0231205 13.67302562 76.04091359 27.34604664 76.05181217 41.01908779 C76.05704164 47.36730576 76.06414044 53.7155104 76.07543945 60.0637207 C76.08626606 66.18448582 76.09227635 72.30523809 76.09487724 78.42601204 C76.0967319 80.76690943 76.10035329 83.10780609 76.10573006 85.44869804 C76.11293748 88.71508202 76.11399107 91.98141215 76.11352539 95.24780273 C76.11712067 96.226035 76.12071594 97.20426727 76.12442017 98.21214294 C76.1230455 99.09700378 76.12167084 99.98186462 76.12025452 100.89353943 C76.12117631 101.66692374 76.1220981 102.44030806 76.12304783 103.23712826 C76 105 76 105 75 106 C72.62699131 106.09494733 70.28321297 106.12559319 67.90991211 106.11352539 C67.16849472 106.11367142 66.42707733 106.11381744 65.66319275 106.1139679 C63.20121379 106.11326865 60.73930957 106.10547574 58.27734375 106.09765625 C56.57483461 106.09579211 54.87232493 106.09436819 53.16981506 106.09336853 C48.68006927 106.08954302 44.19035562 106.07971247 39.70062256 106.06866455 C35.12268509 106.05845113 30.54474244 106.05387106 25.96679688 106.04882812 C16.97785043 106.03809022 7.98892788 106.02101341 -1 106 C-1.0231205 92.32697438 -1.04091359 78.65395336 -1.05181217 64.98091221 C-1.05704164 58.63269424 -1.06414044 52.2844896 -1.07543945 45.9362793 C-1.08626606 39.81551418 -1.09227635 33.69476191 -1.09487724 27.57398796 C-1.0967319 25.23309057 -1.10035329 22.89219391 -1.10573006 20.55130196 C-1.11293748 17.28491798 -1.11399107 14.01858785 -1.11352539 10.75219727 C-1.11712067 9.773965 -1.12071594 8.79573273 -1.12442017 7.78785706 C-1.1230455 6.90299622 -1.12167084 6.01813538 -1.12025452 5.10646057 C-1.12117631 4.33307626 -1.1220981 3.55969194 -1.12304783 2.76287174 C-1 1 -1 1 0 0 Z " fill="#070501" transform="translate(495,686)"/>
<path d="M0 0 C9.61542548 6.82679971 16.95052788 16.54294373 20 28 C21.82079897 42.09584822 16.07772036 53.02565427 8 64 C4.93842734 67.90027935 2.13745174 71.24169884 -2 74 C-9.13013471 73.65991134 -13.836517 67.15567193 -18.58203125 62.421875 C-27.2803713 52.81228027 -29.8685034 40.4802506 -29.4296875 27.91015625 C-28.2775566 17.42576504 -20.79131938 11.33421019 -13 5 C-12.25878906 4.36320313 -11.51757812 3.72640625 -10.75390625 3.0703125 C-4.92117321 -1.7149543 -4.92117321 -1.7149543 0 0 Z " fill="#F9B017" transform="translate(387,707)"/>
<path d="M0 0 C25.86061052 0 25.86061052 0 31.08398438 4.99145508 C33.72471354 9.1379517 33.59436629 12.45951943 33.56640625 17.28125 C33.57570412 18.6179071 33.57570412 18.6179071 33.58518982 19.98156738 C33.59227675 21.86091014 33.58913366 23.74031582 33.57641602 25.61962891 C33.56254307 28.4910857 33.59664388 31.35928664 33.63476562 34.23046875 C33.63571682 36.05989663 33.63385795 37.88932858 33.62890625 39.71875 C33.64216446 40.57408325 33.65542267 41.4294165 33.66908264 42.31066895 C33.60039133 46.71905583 33.43674042 48.45515771 30.58837891 52.00854492 C21.55442072 58.95911999 11.2643114 57 0 57 C0 38.19 0 19.38 0 0 Z " fill="#0A6309" transform="translate(364,986)"/>
<path d="M0 0 C24.04011461 0 24.04011461 0 30 4 C33.49100703 8.44591268 33.46740108 12.39427225 33.46875 17.80859375 C33.48017029 19.07510521 33.48017029 19.07510521 33.49182129 20.36720276 C33.50259866 22.14817354 33.50548501 23.9292074 33.50097656 25.71020508 C33.50000422 28.42572028 33.54164938 31.13840802 33.5859375 33.85351562 C33.59114509 35.58853581 33.59383268 37.32356576 33.59375 39.05859375 C33.6183429 40.26823036 33.6183429 40.26823036 33.64343262 41.50230408 C33.59313286 45.63322593 33.23897375 48.21767482 30.59057617 51.48120117 C22.36411161 59.47973428 10.88584984 57 0 57 C0 38.19 0 19.38 0 0 Z " fill="#0A6309" transform="translate(812,986)"/>
<path d="M0 0 C20 0 20 0 29 4 C33.45761051 8.45761051 33.18130688 12.19813315 33.23828125 18.17578125 C33.246353 18.97856003 33.25442474 19.78133881 33.26274109 20.60844421 C33.2765645 22.30721895 33.28729445 24.00602125 33.29516602 25.70483398 C33.31236835 28.29269508 33.35626692 30.87927459 33.40039062 33.46679688 C33.41051922 35.1197823 33.41903481 36.77277856 33.42578125 38.42578125 C33.44328934 39.19473221 33.46079742 39.96368317 33.47883606 40.75593567 C33.45807705 45.94029365 32.46787015 48.91539606 29 53 C19.28009154 58.12504264 11.51130508 57 0 57 C0 38.19 0 19.38 0 0 Z " fill="#0C6409" transform="translate(589,986)"/>
<path d="M0 0 C25.08 0 50.16 0 76 0 C76 4.95 76 9.9 76 15 C50.92 15 25.84 15 0 15 C0 10.05 0 5.1 0 0 Z " fill="#FBB217" transform="translate(495,825)"/>
<path d="M0 0 C46.2 0 92.4 0 140 0 C140 2.64 140 5.28 140 8 C93.8 8 47.6 8 0 8 C0 5.36 0 2.72 0 0 Z " fill="#F7AF17" transform="translate(463,814)"/>
<path d="M0 0 C46.2 0 92.4 0 140 0 C140 2.64 140 5.28 140 8 C93.8 8 47.6 8 0 8 C0 5.36 0 2.72 0 0 Z " fill="#FBB117" transform="translate(463,802)"/>
<path d="M0 0 C24.09 0 48.18 0 73 0 C73 3.96 73 7.92 73 12 C72 13 72 13 69.14634705 13.12025452 C67.86949539 13.11803391 66.59264374 13.11581329 65.27709961 13.11352539 C64.5746965 13.11367142 63.8722934 13.11381744 63.14860535 13.1139679 C60.81648722 13.11326872 58.484448 13.10547617 56.15234375 13.09765625 C54.53951562 13.09579208 52.92668693 13.09436818 51.31385803 13.09336853 C47.06084643 13.08954323 42.80786876 13.07971285 38.55487061 13.06866455 C34.2182257 13.05845069 29.88157533 13.05387096 25.54492188 13.04882812 C17.02993231 13.03809059 8.51497037 13.02101403 0 13 C0 8.71 0 4.42 0 0 Z " fill="#FBB217" transform="translate(497,863)"/>
<path d="M0 0 C18.48 0 36.96 0 56 0 C56 4.62 56 9.24 56 14 C37.52 14 19.04 14 0 14 C0 9.38 0 4.76 0 0 Z " fill="#F8AF17" transform="translate(536,845)"/>
<path d="M0 0 C18.15 0 36.3 0 55 0 C55 4.62 55 9.24 55 14 C36.85 14 18.7 14 0 14 C0 9.38 0 4.76 0 0 Z " fill="#F8AF17" transform="translate(475,845)"/>
<path d="M0 0 C17.82 0 35.64 0 54 0 C54 4.62 54 9.24 54 14 C36.18 14 18.36 14 0 14 C0 9.38 0 4.76 0 0 Z " fill="#FBB217" transform="translate(506,881)"/>
<path d="M0 0 C5.71085294 -0.02481154 11.42167414 -0.04291275 17.13256836 -0.05493164 C19.07332913 -0.05994485 21.01408616 -0.06675712 22.95483398 -0.07543945 C25.75245084 -0.08763732 28.55001755 -0.09325855 31.34765625 -0.09765625 C32.2083522 -0.10281754 33.06904816 -0.10797882 33.95582581 -0.11329651 C38.74729665 -0.11373768 43.27500764 0.19438183 48 1 C49.32 5.29 50.64 9.58 52 14 C35.17 14 18.34 14 1 14 C0.1627035 8.97622101 -0.0861953 4.99932751 0 0 Z " fill="#F7AE17" transform="translate(582,900)"/>
<path d="M0 0 C5.87157893 -0.02477942 11.74312718 -0.04289766 17.61474609 -0.05493164 C19.61084524 -0.05995022 21.60694073 -0.06676651 23.60302734 -0.07543945 C26.47754826 -0.08761356 29.35202044 -0.09325316 32.2265625 -0.09765625 C33.55815903 -0.10539818 33.55815903 -0.10539818 34.91665649 -0.11329651 C35.75707489 -0.11337204 36.59749329 -0.11344757 37.46337891 -0.11352539 C38.56258163 -0.11685631 38.56258163 -0.11685631 39.68399048 -0.12025452 C42.47726944 0.02478133 45.24101498 0.54016916 48 1 C48 5.29 48 9.58 48 14 C32.16 14 16.32 14 0 14 C0 9.38 0 4.76 0 0 Z " fill="#F5AD17" transform="translate(483,900)"/>
<path d="M0 0 C5.58338327 2.1538548 9.31030432 5.62060863 12 11 C12.625 13.4375 12.625 13.4375 12 16 C8.62532255 21.44382275 4.10182762 25.06163747 -2 27 C-6.19755005 27.76534277 -9.33138809 27.30859011 -13.25 25.5 C-16.68895537 22.37367694 -18.64726239 19.45067375 -20 15 C-20.07526473 10.63464548 -19.29768378 8.04257113 -16.625 4.6875 C-11.40967645 -0.65199792 -7.18219042 -0.95173835 0 0 Z " fill="#040301" transform="translate(386,736)"/>
<path d="M0 0 C13.53 0 27.06 0 41 0 C41 4.62 41 9.24 41 14 C27.47 14 13.94 14 0 14 C0 9.38 0 4.76 0 0 Z " fill="#FAB117" transform="translate(567,881)"/>
<path d="M0 0 C13.53 0 27.06 0 41 0 C41 4.62 41 9.24 41 14 C27.47 14 13.94 14 0 14 C0 9.38 0 4.76 0 0 Z " fill="#FAB117" transform="translate(458,881)"/>
<path d="M0 0 C5.67830078 -0.02464705 11.35657069 -0.04283462 17.03491211 -0.05493164 C18.96818585 -0.05997256 20.90145576 -0.06680519 22.8347168 -0.07543945 C25.60726872 -0.08751565 28.37977041 -0.09323057 31.15234375 -0.09765625 C32.45702858 -0.10539818 32.45702858 -0.10539818 33.78807068 -0.11329651 C35.85905814 -0.11349185 37.92994324 -0.06208168 40 0 C43.30823887 3.30823887 41 9.32144372 41 14 C27.47 14 13.94 14 0 14 C0 9.38 0 4.76 0 0 Z " fill="#F9B017" transform="translate(536,900)"/>
<path d="M0 0 C5.09032841 -0.02468084 10.18062215 -0.04285082 15.27099609 -0.05493164 C17.00342414 -0.05996682 18.73584792 -0.06679532 20.46826172 -0.07543945 C22.95541433 -0.08754065 25.44251087 -0.09323638 27.9296875 -0.09765625 C29.09538773 -0.10539818 29.09538773 -0.10539818 30.28463745 -0.11329651 C35.77225659 -0.11387171 35.77225659 -0.11387171 38 1 C38 5.29 38 9.58 38 14 C24.14 14 10.28 14 -4 14 C-2.68 9.38 -1.36 4.76 0 0 Z " fill="#F5AD17" transform="translate(441,900)"/>
<path d="M0 0 C13.2 0 26.4 0 40 0 C40 4.29 40 8.58 40 13 C25.81 13 11.62 13 -3 13 C-1 2 -1 2 0 0 Z " fill="#F9B017" transform="translate(452,863)"/>
<path d="M0 0 C13.2 0 26.4 0 40 0 C43 10 43 10 43 13 C28.81 13 14.62 13 0 13 C0 8.71 0 4.42 0 0 Z " fill="#FCB217" transform="translate(574,863)"/>
<path d="M0 0 C9.24 0 18.48 0 28 0 C32 12 32 12 32 15 C21.44 15 10.88 15 0 15 C0 10.05 0 5.1 0 0 Z " fill="#FBB217" transform="translate(575,825)"/>
<path d="M0 0 C9.24 0 18.48 0 28 0 C28 4.95 28 9.9 28 15 C17.44 15 6.88 15 -4 15 C-3.01 11.37 -2.02 7.74 -1 4 C-0.67 2.68 -0.34 1.36 0 0 Z " fill="#FCB217" transform="translate(463,825)"/>
<path d="M0 0 C4.29 0 8.58 0 13 0 C14.8540835 5.17598311 16 8.43756187 16 14 C10.72 14 5.44 14 0 14 C0 9.38 0 4.76 0 0 Z " fill="#F8AF17" transform="translate(596,845)"/>
<path d="M0 0 C4.29 0 8.58 0 13 0 C13 4.62 13 9.24 13 14 C7.72 14 2.44 14 -3 14 C-2.4618756 8.79813078 -1.69880437 5.09641312 0 0 Z " fill="#F8AF17" transform="translate(457,845)"/>
<path d="M0 0 C2.31 0 4.62 0 7 0 C10.49580372 4.06269081 13 8.58321001 13 14 C8.71 14 4.42 14 0 14 C0 9.38 0 4.76 0 0 Z " fill="#F8AF17" transform="translate(613,881)"/>
<path d="M0 0 C2.31 0 4.62 0 7 0 C7.02685938 2.14576637 7.04633088 4.29162645 7.0625 6.4375 C7.07410156 7.63246094 7.08570313 8.82742188 7.09765625 10.05859375 C7 13 7 13 6 14 C4.48071962 14.07179964 2.95832518 14.08392007 1.4375 14.0625 C0.61121094 14.05347656 -0.21507812 14.04445313 -1.06640625 14.03515625 C-1.70449219 14.02355469 -2.34257812 14.01195312 -3 14 C-2.68872484 12.41642541 -2.37592711 10.83315007 -2.0625 9.25 C-1.80146484 7.92742188 -1.80146484 7.92742188 -1.53515625 6.578125 C-1.07631512 4.36764947 -0.56663926 2.18487932 0 0 Z " fill="#F1AA16" transform="translate(446,881)"/>
<path d="M0 0 C2.31 0 4.62 0 7 0 C7.02686553 1.97909398 7.04633375 3.95828971 7.0625 5.9375 C7.07410156 7.03964844 7.08570313 8.14179687 7.09765625 9.27734375 C7 12 7 12 6 13 C3.5 13.125 3.5 13.125 1 13 C0 12 0 12 -0.09765625 9.27734375 C-0.08605469 8.17519531 -0.07445312 7.07304688 -0.0625 5.9375 C-0.05347656 4.83277344 -0.04445313 3.72804688 -0.03515625 2.58984375 C-0.02355469 1.73519531 -0.01195312 0.88054688 0 0 Z " fill="#1C1403" transform="translate(525,671)"/>
<path d="M0 0 C0 4.62 0 9.24 0 14 C-1.98 14 -3.96 14 -6 14 C-6 9.71 -6 5.42 -6 1 C-2 0 -2 0 0 0 Z " fill="#130E02" transform="translate(477,670)"/>
<path d="M0 0 C2.97 0.495 2.97 0.495 6 1 C6.02686553 2.97909398 6.04633375 4.95828971 6.0625 6.9375 C6.07410156 8.03964844 6.08570313 9.14179687 6.09765625 10.27734375 C6 13 6 13 5 14 C3.35 14 1.7 14 0 14 C0 9.38 0 4.76 0 0 Z " fill="#1C1403" transform="translate(439,670)"/>
<path d="M0 0 C1.98 0 3.96 0 6 0 C6 4.29 6 8.58 6 13 C4.02 13 2.04 13 0 13 C0 8.71 0 4.42 0 0 Z " fill="#181103" transform="translate(601,671)"/>
<path d="M0 0 C1.98 0 3.96 0 6 0 C6 4.29 6 8.58 6 13 C4.02 13 2.04 13 0 13 C0 8.71 0 4.42 0 0 Z " fill="#110C02" transform="translate(558,671)"/>
<path d="M0 0 C1.98 0 3.96 0 6 0 C6 4.29 6 8.58 6 13 C4.02 13 2.04 13 0 13 C0 8.71 0 4.42 0 0 Z " fill="#140E02" transform="translate(547,671)"/>
<path d="M0 0 C1.98 0 3.96 0 6 0 C6.02686553 1.97909398 6.04633375 3.95828971 6.0625 5.9375 C6.07410156 7.03964844 6.08570313 8.14179687 6.09765625 9.27734375 C6 12 6 12 5 13 C3.35 13 1.7 13 0 13 C0 8.71 0 4.42 0 0 Z " fill="#0E2103" transform="translate(612,671)"/>
<path d="M0 0 C1.98 0 3.96 0 6 0 C6 4.29 6 8.58 6 13 C4.35 13 2.7 13 1 13 C0 12 0 12 -0.09765625 9.27734375 C-0.08605469 8.17519531 -0.07445312 7.07304688 -0.0625 5.9375 C-0.05347656 4.83277344 -0.04445313 3.72804688 -0.03515625 2.58984375 C-0.02355469 1.73519531 -0.01195312 0.88054688 0 0 Z " fill="#071B03" transform="translate(569,671)"/>
<path d="M0 0 C1.98 0 3.96 0 6 0 C6.02686553 1.97909398 6.04633375 3.95828971 6.0625 5.9375 C6.07410156 7.03964844 6.08570313 8.14179687 6.09765625 9.27734375 C6 12 6 12 5 13 C3.35 13 1.7 13 0 13 C0 8.71 0 4.42 0 0 Z " fill="#100C02" transform="translate(504,671)"/>
<path d="M0 0 C1.98 0 3.96 0 6 0 C6.02686553 1.97909398 6.04633375 3.95828971 6.0625 5.9375 C6.07410156 7.03964844 6.08570313 8.14179687 6.09765625 9.27734375 C6 12 6 12 5 13 C3.35 13 1.7 13 0 13 C0 8.71 0 4.42 0 0 Z " fill="#0F0B02" transform="translate(450,671)"/>
<path d="M0 0 C1.32 0.33 2.64 0.66 4 1 C4 5.29 4 9.58 4 14 C2.35 14 0.7 14 -1 14 C-1.98329211 9.94392005 -2.23600253 6.16937798 -2 2 C-1.34 1.34 -0.68 0.68 0 0 Z " fill="#0E0A02" transform="translate(538,670)"/>
<path d="M0 0 C1.98 0 3.96 0 6 0 C6 3.96 6 7.92 6 12 C4.02 12 2.04 12 0 12 C0 8.04 0 4.08 0 0 Z " fill="#110C02" transform="translate(493,671)"/>
<path d="M0 0 C2.475 0.495 2.475 0.495 5 1 C5 5.29 5 9.58 5 14 C3.35 14 1.7 14 0 14 C0 9.38 0 4.76 0 0 Z " fill="#090701" transform="translate(591,670)"/>
<path d="M0 0 C1.32 0 2.64 0 4 0 C4 4.62 4 9.24 4 14 C2.35 14 0.7 14 -1 14 C-1.02685938 11.85423363 -1.04633088 9.70837355 -1.0625 7.5625 C-1.07410156 6.36753906 -1.08570313 5.17257812 -1.09765625 3.94140625 C-1 1 -1 1 0 0 Z " fill="#100C02" transform="translate(516,670)"/>
<path d="M0 0 C2.475 0.495 2.475 0.495 5 1 C5 5.29 5 9.58 5 14 C3.35 14 1.7 14 0 14 C0 9.38 0 4.76 0 0 Z " fill="#070501" transform="translate(461,670)"/>
<path d="M0 0 C1.65 0 3.3 0 5 0 C5 4.29 5 8.58 5 13 C3.35 13 1.7 13 0 13 C0 8.71 0 4.42 0 0 Z " fill="#040301" transform="translate(483,671)"/>
<path d="M0 0 C1.65 0 3.3 0 5 0 C5 3.96 5 7.92 5 12 C3.35 12 1.7 12 0 12 C0 8.04 0 4.08 0 0 Z " fill="#010501" transform="translate(580,671)"/>
</svg>
